<?xml version="1.0" standalone="no"?>
<!DOCTYPE svg PUBLIC "-//W3C//DTD SVG 20010904//EN"
 "http://www.w3.org/TR/2001/REC-SVG-20010904/DTD/svg10.dtd">
<svg version="1.0" xmlns="http://www.w3.org/2000/svg"
 width="387.000000pt" height="387.000000pt" viewBox="0 0 387.000000 387.000000"
 preserveAspectRatio="xMidYMid meet">

<g transform="translate(0.000000,387.000000) scale(0.100000,-0.100000)"
fill="#000000" stroke="none">
<path d="M1595 3821 c-100 -36 -191 -94 -179 -113 4 -7 2 -8 -4 -4 -21 13 -99
-92 -131 -178 -25 -66 -45 -171 -38 -191 9 -23 24 -18 31 9 7 29 104 80 132
69 13 -5 15 -3 9 7 -5 9 -4 11 4 6 6 -4 18 0 27 9 10 10 24 13 37 9 15 -5 19
-3 14 9 -3 9 1 18 9 21 10 4 13 2 8 -7 -5 -9 -4 -9 7 1 7 6 22 13 34 13 20 1
20 1 0 7 -13 3 0 9 40 18 33 7 83 18 110 24 88 20 240 -5 286 -46 10 -9 23
-13 30 -8 7 4 10 3 6 -3 -4 -6 6 -16 23 -23 19 -8 31 -22 35 -41 7 -31 22 -38
31 -14 4 8 17 15 31 15 14 0 43 10 64 22 30 17 39 28 39 48 0 60 -78 133 -176
164 -39 12 -68 32 -113 77 -46 45 -66 59 -80 54 -11 -3 -22 -1 -26 4 -4 7 1 8
12 4 43 -15 -6 17 -55 36 -65 26 -149 27 -217 2z m192 -7 c-3 -3 -12 -4 -19
-1 -8 3 -5 6 6 6 11 1 17 -2 13 -5z m153 -89 c13 -14 21 -25 18 -25 -8 0 -48
36 -48 44 0 10 6 7 30 -19z"/>
<path d="M3030 3700 c79 -7 110 -16 110 -31 0 -5 7 -9 16 -9 14 0 13 -5 -5
-32 -11 -18 -24 -33 -28 -34 -4 0 -26 -8 -48 -18 -22 -10 -53 -24 -70 -31 -70
-31 -116 -75 -148 -143 -27 -59 -31 -75 -29 -151 1 -82 20 -197 40 -251 11
-28 68 -92 95 -107 19 -10 67 -6 67 6 0 3 -15 13 -32 22 -72 35 -128 172 -128
314 0 82 14 122 43 121 12 -1 25 -5 29 -11 5 -6 8 -5 8 3 0 7 4 11 9 8 4 -3
13 5 19 18 10 22 8 23 -25 21 -19 0 -38 -7 -43 -15 -6 -10 -9 -9 -12 6 -9 42
51 104 134 139 24 9 52 21 63 26 11 4 38 15 60 24 22 9 56 23 75 33 l36 17
-36 24 c-51 35 -145 61 -215 59 l-60 -1 75 -7z"/>
<path d="M3192 3693 c25 -10 55 -25 65 -34 10 -9 34 -19 53 -22 33 -6 34 -6
15 9 -30 24 -99 52 -142 59 -38 5 -38 5 9 -12z"/>
<path d="M3308 3613 c13 -3 19 -9 16 -15 -4 -7 -2 -8 5 -4 17 11 3 26 -22 25
-22 -2 -22 -2 1 -6z"/>
<path d="M3220 3580 c-19 -10 -63 -26 -97 -36 -35 -9 -63 -21 -63 -26 0 -5 -4
-7 -8 -4 -4 2 -19 -5 -32 -16 -14 -11 -18 -18 -10 -15 69 21 67 20 45 3 -11
-8 22 3 73 24 51 22 97 40 103 40 5 0 7 5 3 12 -4 7 -3 8 4 4 7 -4 20 -2 29 3
17 10 16 10 -2 11 -17 0 -17 2 -5 10 27 17 -4 10 -40 -10z"/>
<path d="M3287 3589 c7 -7 15 -10 18 -7 3 3 -2 9 -12 12 -14 6 -15 5 -6 -5z"/>
<path d="M2714 3505 c-31 -24 -36 -38 -60 -152 -6 -29 -59 -90 -93 -108 -14
-7 -49 -16 -76 -20 -28 -4 -59 -11 -70 -16 -18 -7 -17 -8 7 -8 89 -2 209 54
229 107 6 14 34 53 63 86 46 53 86 113 86 131 0 15 -59 2 -86 -20z"/>
<path d="M2352 3140 c1 -38 -8 -47 -32 -32 -16 10 -20 10 -20 -2 0 -9 -18 -16
-52 -20 -29 -4 -64 -9 -78 -12 l-25 -5 25 15 25 15 -25 1 c-23 1 -23 2 -5 10
11 5 14 9 7 9 -7 1 -11 5 -8 10 3 4 -6 6 -21 3 -18 -3 -24 -1 -19 7 4 7 0 11
-11 11 -42 0 -61 -14 -91 -65 -18 -29 -52 -71 -77 -93 l-45 -40 25 -16 c33
-22 32 -34 -7 -45 l-33 -9 43 -1 c45 -1 47 -3 32 -31 -9 -17 -18 -18 -74 -13
l-64 6 19 -89 c10 -49 18 -107 19 -129 l0 -40 -118 0 -119 0 -22 95 c-35 145
-64 179 -141 168 -29 -4 -30 -3 -30 32 0 34 2 37 30 37 16 0 33 3 37 6 12 13
-8 21 -55 23 -26 1 -42 -1 -35 -3 7 -2 9 -11 6 -19 -5 -13 -7 -13 -15 -2 -6 8
-7 -3 -4 -31 3 -25 14 -54 25 -65 31 -35 51 -83 70 -169 16 -74 16 -85 3 -105
-9 -13 -20 -76 -28 -155 -18 -165 -35 -222 -78 -248 -40 -25 -54 -24 -59 4 -3
21 -4 21 -15 -6 -7 -16 -12 -51 -12 -78 l0 -49 -40 0 c-35 0 -42 4 -52 28 -7
15 -12 74 -13 131 -1 90 -3 105 -20 117 -15 11 -21 12 -24 2 -2 -6 3 -16 11
-22 13 -8 12 -13 -10 -38 -14 -15 -33 -28 -43 -28 -22 0 -43 35 -36 61 8 29
-31 33 -77 9 -42 -21 -66 -61 -66 -109 0 -40 -24 -69 -47 -55 -10 6 -21 22
-24 35 -6 22 -7 21 -8 -8 -1 -44 -10 -63 -30 -63 -19 0 -81 64 -81 84 0 8 -10
11 -30 8 -18 -2 -30 0 -30 7 0 6 7 8 15 5 12 -5 14 -2 8 12 -6 17 -5 18 12 4
17 -14 18 -14 7 7 -7 12 -12 35 -12 52 0 24 -4 31 -20 31 -11 0 -20 -4 -20
-10 0 -5 7 -7 16 -3 13 5 15 0 11 -31 -7 -53 -13 -53 -26 -1 -14 54 -29 57
-71 13 -30 -32 -31 -35 -23 -88 4 -30 8 -86 8 -125 l0 -70 -47 -6 c-26 -4 -51
-10 -56 -13 -5 -3 -15 -41 -22 -84 -12 -77 -11 -80 15 -132 30 -58 43 -163 31
-243 -6 -37 -11 -46 -29 -49 -20 -3 -22 -10 -25 -64 -5 -95 9 -156 37 -171 32
-15 38 -28 56 -113 19 -89 19 -168 1 -211 -12 -29 -11 -41 5 -100 31 -114 37
-121 83 -117 l41 3 24 -60 c19 -47 24 -79 25 -151 1 -84 3 -94 31 -134 44 -63
59 -70 129 -58 66 12 71 9 81 -54 9 -53 22 -60 85 -48 65 12 268 69 293 82 10
5 17 20 17 39 0 30 0 30 48 25 26 -3 72 -1 102 3 53 8 52 9 -37 10 -69 1 -95
5 -107 17 -19 18 -21 63 -3 69 6 2 44 13 84 25 l72 20 16 50 c14 43 20 50 42
50 15 0 23 3 19 7 -4 5 -13 8 -19 8 -7 0 -12 17 -13 40 0 22 -4 47 -8 56 -6
14 1 18 38 23 42 7 59 19 38 28 -5 2 -5 57 -2 123 4 66 7 121 6 121 0 1 -32
-2 -70 -7 -76 -9 -86 -7 -81 19 15 72 13 69 60 76 55 9 65 25 60 97 -5 53 -4
55 25 66 28 10 30 15 30 60 0 90 13 242 20 238 4 -2 10 -33 14 -67 4 -35 18
-115 31 -178 13 -63 22 -94 19 -68 l-5 47 32 -11 c44 -15 205 -3 237 18 24 16
24 19 20 108 -3 50 -2 82 2 71 9 -26 32 100 24 135 -4 17 -3 21 4 12 6 -9 13
5 22 47 11 52 10 65 -3 93 -19 42 -25 77 -42 268 -8 85 -19 193 -25 240 -5 47
-14 135 -19 195 -5 61 -19 164 -30 230 -27 157 -27 157 3 145 15 -5 52 -4 102
4 44 7 70 15 59 18 -11 3 5 5 35 4 80 -1 203 12 293 29 151 29 216 12 301 -78
27 -29 46 -46 42 -39 -5 7 -1 12 9 12 9 0 13 -4 10 -10 -6 -10 6 -14 35 -11
12 2 12 0 2 -7 -19 -13 0 -19 85 -27 47 -5 77 -3 92 4 14 8 27 9 38 2 14 -7 9
-11 -27 -21 -55 -15 -141 -6 -193 19 -35 18 -37 18 -23 2 25 -28 85 -41 183
-41 98 0 170 19 241 64 48 30 57 42 40 52 -7 4 -10 4 -6 -1 8 -9 -8 -27 -42
-45 l-25 -13 20 23 c21 25 17 23 -49 -18 -31 -19 -40 -21 -47 -10 -5 7 -9 17
-9 21 0 5 -5 5 -12 1 -7 -4 -8 -3 -4 5 5 7 13 8 24 2 11 -6 25 -2 49 16 18 14
30 29 27 34 -3 5 2 6 11 3 10 -4 15 -2 13 7 -2 8 3 13 10 12 6 -2 12 3 12 10
0 7 8 20 18 29 69 64 96 99 83 108 -15 8 -19 6 -113 -57 -57 -38 -148 -73
-188 -73 -38 0 -123 22 -131 34 -4 5 -11 6 -17 2 -6 -3 -13 -2 -16 3 -3 5 -18
12 -33 16 -15 3 -38 14 -52 24 -14 10 -41 21 -58 24 l-32 6 21 -57 c11 -31 26
-60 32 -64 6 -4 7 -8 2 -8 -4 0 -1 -11 8 -24 9 -14 12 -27 7 -31 -9 -5 -54 68
-66 108 -4 12 -13 32 -21 44 -8 12 -23 60 -33 105 -11 46 -20 73 -20 61 -1
-32 25 -152 44 -195 8 -21 13 -38 11 -38 -2 0 -24 11 -47 25 -41 23 -40 37 1
15 16 -9 19 -8 13 7 -10 30 -14 34 -25 26 -7 -3 -37 -5 -67 -4 -31 1 -108 -7
-171 -18 -63 -12 -131 -21 -150 -22 -28 0 -31 -2 -15 -8 14 -6 -1 -10 -48 -12
-37 -2 -76 -1 -85 3 -10 4 -12 7 -4 7 7 1 11 4 9 9 -5 9 24 36 44 41 8 2 69
14 136 26 127 24 143 29 143 47 0 7 -4 7 -14 -1 -7 -6 -60 -18 -117 -26 -124
-18 -135 -18 -89 0 19 7 27 14 18 14 -20 1 -25 21 -5 22 6 0 -1 7 -18 14 -23
11 -26 14 -10 15 17 0 17 2 5 10 -12 8 -10 10 10 11 l25 1 -25 7 c-19 6 -6 10
58 20 45 7 87 9 92 6 6 -3 10 -1 10 4 0 6 7 11 16 11 8 0 12 -4 9 -10 -3 -5 0
-7 9 -4 11 4 16 -3 19 -28 3 -30 4 -30 5 8 2 46 -15 68 -44 58 -16 -5 -16 -4
-4 5 8 6 10 11 4 11 -7 0 -14 9 -17 20 -8 31 -26 24 -25 -10z m-165 -96 c-3
-3 -12 -4 -19 -1 -8 3 -5 6 6 6 11 1 17 -2 13 -5z m30 -50 c-3 -3 -12 -4 -19
-1 -8 3 -5 6 6 6 11 1 17 -2 13 -5z m-617 -449 c6 -8 10 -22 8 -32 -4 -24 -47
-24 -62 0 -9 15 -7 21 8 33 25 18 31 18 46 -1z m372 -9 c9 -14 -9 -46 -27 -46
-21 0 -35 31 -24 52 9 18 37 15 51 -6z m-913 -270 c-2 -2 -22 -6 -44 -10 -29
-5 -36 -4 -25 3 13 10 79 16 69 7z m114 -143 c-7 -2 -19 -2 -25 0 -7 3 -2 5
12 5 14 0 19 -2 13 -5z m9 -36 c14 -21 9 -25 -48 -35 -44 -7 -62 -6 -85 5 -34
17 -91 9 -83 -11 3 -8 -3 -16 -12 -20 -20 -8 -21 -8 -29 25 -5 21 -3 25 17 26
107 6 159 11 163 15 11 10 70 6 77 -5z m216 -99 c15 -19 62 -138 62 -158 0
-12 -7 -16 -27 -13 -16 2 -80 -2 -143 -10 l-115 -13 -14 30 c-7 17 -25 57 -39
88 -14 32 -23 60 -21 62 3 3 44 6 92 8 48 2 87 5 87 8 0 12 108 10 118 -2z
m629 -45 c-3 -10 -5 -4 -5 12 0 17 2 24 5 18 2 -7 2 -21 0 -30z m12 -115 c1
-5 -3 -8 -9 -8 -5 0 -10 12 -9 28 0 24 1 25 9 7 5 -11 9 -23 9 -27z m-1124
-123 c49 -87 89 -204 116 -335 30 -150 33 -408 5 -509 -45 -165 -107 -214
-204 -162 -47 25 -118 145 -160 267 -29 83 -59 243 -65 334 -2 41 -2 60 0 42
2 -18 8 -30 14 -27 5 4 9 -2 9 -12 0 -11 4 -23 8 -29 8 -8 17 -37 41 -124 9
-32 10 -30 5 15 -3 28 -10 83 -16 123 -12 82 -5 214 14 258 27 63 48 84 83 84
19 0 36 -3 38 -8 3 -4 -9 -7 -26 -7 -25 0 -34 -6 -46 -30 -21 -43 -36 -182
-25 -230 9 -40 9 -40 12 23 l3 62 74 0 c40 0 79 2 87 5 7 3 18 -7 26 -22 16
-35 42 -153 43 -201 1 -20 3 -29 6 -19 5 18 5 18 20 0 13 -17 14 -16 10 9 -2
15 0 25 4 22 5 -3 9 -14 9 -26 0 -11 9 -31 20 -45 l20 -26 0 54 c0 169 -80
431 -175 569 -31 46 -32 51 -10 30 15 -14 42 -52 60 -85z m1132 63 c-3 -8 -6
-5 -6 6 -1 11 2 17 5 13 3 -3 4 -12 1 -19z m-604 -308 c9 -31 10 -47 3 -51
-14 -9 -238 -29 -248 -23 -4 3 -8 0 -8 -7 0 -31 -20 10 -23 46 -2 37 -1 38 33
42 40 3 133 21 170 31 50 15 59 10 73 -38z m597 30 c0 -5 -4 -10 -10 -10 -5 0
-10 5 -10 10 0 6 5 10 10 10 6 0 10 -4 10 -10z m-470 -148 c0 -5 -44 -14 -97
-21 -54 -6 -119 -15 -145 -20 -27 -4 -48 -4 -48 0 0 4 21 11 48 15 26 4 81 12
122 19 94 16 120 17 120 7z m-263 -94 c-3 -8 -6 -5 -6 6 -1 11 2 17 5 13 3 -3
4 -12 1 -19z m43 2 c0 -5 -5 -10 -11 -10 -5 0 -7 5 -4 10 3 6 8 10 11 10 2 0
4 -4 4 -10z m115 -512 c-34 -10 -89 -8 -113 5 -21 12 -19 14 43 27 36 8 69 19
73 24 4 6 9 -2 12 -19 4 -24 1 -31 -15 -37z m-152 5 c-7 -2 -19 -2 -25 0 -7 3
-2 5 12 5 14 0 19 -2 13 -5z m233 -92 c-3 -4 -18 -8 -35 -9 -17 -1 -43 -7 -58
-13 -15 -6 -46 -13 -68 -15 l-40 -4 35 16 c71 31 180 48 166 25z m-226 -51
c-34 -11 -60 -11 -35 0 11 5 29 8 40 8 16 0 15 -2 -5 -8z m20 -270 c0 -5 -2
-10 -4 -10 -3 0 -8 5 -11 10 -3 6 -1 10 4 10 6 0 11 -4 11 -10z"/>
<path d="M712 1280 c0 -19 2 -27 5 -17 2 9 2 25 0 35 -3 9 -5 1 -5 -18z"/>
<path d="M722 1210 c0 -14 2 -19 5 -12 2 6 2 18 0 25 -3 6 -5 1 -5 -13z"/>
<path d="M731 1173 c-2 -29 23 -112 32 -106 6 4 7 1 2 -6 -8 -15 19 -94 48
-135 l20 -28 -21 11 c-11 6 -35 28 -52 48 l-32 38 18 -34 c25 -43 70 -81 98
-81 36 0 77 52 92 117 18 76 18 119 2 106 -17 -14 -81 -7 -117 12 -27 14 -30
13 -34 -3 -4 -15 -5 -14 -6 2 -1 20 -1 20 -16 0 -14 -18 -14 -18 -15 6 -1 26
-18 73 -19 53z"/>
<path d="M2148 3153 c7 -3 16 -2 19 1 4 3 -2 6 -13 5 -11 0 -14 -3 -6 -6z"/>
<path d="M1148 3113 c7 -3 16 -2 19 1 4 3 -2 6 -13 5 -11 0 -14 -3 -6 -6z"/>
<path d="M1012 3076 c-21 -19 -50 -60 -65 -90 -41 -83 -36 -91 33 -56 22 11
43 20 47 20 4 -1 -10 -10 -32 -22 -55 -29 -28 -34 36 -7 l52 23 18 -22 c40
-50 56 -235 26 -305 -12 -28 -26 -42 -54 -53 -87 -34 -99 -48 -68 -74 13 -11
30 2 110 82 74 74 94 100 89 114 -4 11 -3 16 1 11 5 -4 34 18 65 48 l57 56
-19 57 c-20 60 -41 94 -33 51 7 -35 16 -136 11 -124 -2 6 -7 23 -11 40 l-7 30
-13 -25 c-8 -14 -14 -44 -15 -66 0 -39 -19 -72 -33 -57 -4 3 -7 19 -7 34 0 61
-34 187 -66 247 -27 50 -31 64 -20 68 8 3 12 12 9 20 -3 8 -9 12 -13 9 -5 -3
-10 -1 -12 4 -1 4 -13 11 -25 15 -17 5 -31 -1 -61 -28z"/>
<path d="M1230 3061 c0 -5 5 -13 10 -16 6 -3 10 -2 10 4 0 5 -4 13 -10 16 -5
3 -10 2 -10 -4z"/>
<path d="M1200 3046 c0 -2 7 -7 16 -10 8 -3 12 -2 9 4 -6 10 -25 14 -25 6z"/>
<path d="M2950 3001 c0 -25 33 -52 69 -56 38 -5 39 4 4 37 -36 33 -73 43 -73
19z"/>
<path d="M3376 2934 c-7 -18 54 -31 65 -13 14 22 11 24 -25 25 -20 1 -37 -4
-40 -12z"/>
<path d="M3014 2929 c-4 -7 -3 -9 4 -5 6 3 13 2 17 -4 3 -5 21 -10 38 -9 l32
1 -31 7 c-17 4 -36 11 -42 15 -6 3 -14 1 -18 -5z"/>
<path d="M1241 2910 c0 -14 4 -32 9 -40 9 -13 10 -13 9 0 -1 8 -5 26 -9 40
l-8 25 -1 -25z"/>
<path d="M1378 2555 c-10 -13 -18 -34 -18 -46 0 -19 4 -15 20 16 24 47 22 63
-2 30z"/>
<path d="M1752 1100 c0 -14 2 -19 5 -12 2 6 2 18 0 25 -3 6 -5 1 -5 -13z"/>
<path d="M1755 1038 c-2 -7 -5 -75 -7 -150 -3 -129 -2 -138 17 -147 38 -19 80
-22 155 -11 111 15 138 26 138 55 0 16 -5 22 -12 18 -8 -5 -8 -3 0 8 6 8 8 53
6 111 -4 95 -5 97 -24 87 -11 -6 -56 -13 -99 -16 -88 -7 -175 16 -165 43 3 8
3 14 0 14 -2 0 -6 -6 -9 -12z m278 -278 c-3 -3 -8 1 -10 8 -3 6 -9 10 -14 7
-5 -4 -6 1 -3 10 6 14 8 14 19 -2 8 -10 11 -20 8 -23z"/>
<path d="M1741 714 c0 -11 3 -14 6 -6 3 7 2 16 -1 19 -3 4 -6 -2 -5 -13z"/>
<path d="M1945 619 c-22 -4 -58 -8 -80 -9 -30 0 -36 -3 -25 -10 22 -14 58 -11
120 10 58 19 52 23 -15 9z"/>
<path d="M1763 522 c10 -10 14 -22 10 -27 -5 -4 -3 -5 3 -2 7 4 45 -9 85 -29
83 -41 144 -64 168 -64 9 1 -7 9 -36 19 -29 11 -93 42 -142 70 -98 55 -113 61
-88 33z"/>
</g>
</svg>
